# xmcd
#
# Track frame offsets: 
#        150
#        23464
#        37800
#        65247
#        72053
#        103163
#        118732
#        143805
#        172086
#        188726
#        210249
#        216761
#        238502
#        254777
#        305287
#
# Disc length: 4086 seconds
#
# Revision: 0
# Processed by: cddbd v1.5.2PL0 Copyright (c) Steve Scherf et al.
# Submitted via: ExactAudioCopy v0.99pb3
#
DISCID=d60ff40f
DTITLE=Hazmat Modine - Bahamut
DYEAR=2007
DGENRE=Blues
TTITLE0=Yesterday Morning
TTITLE1=It Calls Me
TTITLE2=Bahamut
TTITLE3=Fred of Ballaroy
TTITLE4=Broke My Baby's Heart
TTITLE5=Almost Gone
TTITLE6=Steady Roll
TTITLE7=Everybody Loves You
TTITLE8=Lost Fox Train
TTITLE9=Dry Spell
TTITLE10=Ugly Rug
TTITLE11=Who Walks In When I Walk Out?
TTITLE12=Grade-A Grey Day
TTITLE13=Man Trouble
TTITLE14=???
EXTD=
EXTT0=
EXTT1=
EXTT2=
EXTT3=
EXTT4=
EXTT5=
EXTT6=
EXTT7=
EXTT8=
EXTT9=
EXTT10=
EXTT11=
EXTT12=
EXTT13=
EXTT14=
PLAYORDER=
